<svg width="30" height="29" viewBox="0 0 30 29" fill="none" xmlns="http://www.w3.org/2000/svg">
<path d="M3 28.5C2.175 28.5 1.46875 28.2062 0.88125 27.6187C0.29375 27.0312 0 26.325 0 25.5V9C0 8.175 0.29375 7.46875 0.88125 6.88125C1.46875 6.29375 2.175 6 3 6H9V3C9 2.175 9.29375 1.46875 9.88125 0.88125C10.4688 0.29375 11.175 0 12 0H18C18.825 0 19.5312 0.29375 20.1187 0.88125C20.7062 1.46875 21 2.175 21 3V6H27C27.825 6 28.5312 6.29375 29.1187 6.88125C29.7062 7.46875 30 8.175 30 9V25.5C30 26.325 29.7062 27.0312 29.1187 27.6187C28.5312 28.2062 27.825 28.5 27 28.5H3ZM3 25.5H27V9H3V25.5ZM12 6H18V3H12V6ZM3 25.5V9V25.5Z" fill="#855300"/>
</svg>
